<?xml version="1.0" encoding="utf-8"?>
<!-- Generator: Adobe Illustrator 25.0.0, SVG Export Plug-In . SVG Version: 6.00 Build 0)  -->
<svg version="1.1" id="Layer_1" xmlns="http://www.w3.org/2000/svg" xmlns:xlink="http://www.w3.org/1999/xlink" x="0px" y="0px"
	 viewBox="0 0 160.6 183.1" style="enable-background:new 0 0 160.6 183.1;" xml:space="preserve">
<style type="text/css">
	.st0{fill:#C22038;}
</style>
<g>
	<path id="XMLID_1_" class="st0" d="M102.9,32.8c-3,0.2-6.2,1.1-9.5,2.7c-3.3,1.7-6.1,3.7-8.3,6.2c-4.4,4.9-6.8,11-6.8,16.6
		c0,0.8,0,1.5,0.1,2.2c6.8,0.6,13-2.9,18.2-9c4.3-5.1,6.4-10.6,6.4-16.5C103,34.4,102.9,33.6,102.9,32.8z"/>
	<path class="st0" d="M131.8,101.4c-0.5,5.2-1.7,10.6-3.5,16.1c-0.2,0.5-0.3,0.9-0.5,1.4c-0.7,1.9-1.4,3.7-2.1,5.4
		c-1.8,4.1-3.9,7.9-6.3,11.4c-3.3,4.7-6.1,8-8.1,9.9c-3.3,3-6.7,4.5-10.5,4.6c-2.7,0-5.9-0.8-9.7-2.3c-3.8-1.5-7.2-2.3-10.4-2.3
		c-3.3,0-6.9,0.8-10.7,2.3c-3.8,1.5-6.9,2.3-9.2,2.4c-3.6,0.2-7.1-1.4-10.7-4.7c-1.8-1.5-3.9-3.9-6.3-7.2c3.5-1.6,7.5-3.1,11.9-4.5
		c15.9-5.2,27.8-5.8,34.9-5.3c3.7,0.2,6.5-3.4,5.3-6.9c-0.3-1-0.9-1.9-1.7-2.5c-0.8-0.6-1.7-1.1-2.8-1.2c-6-0.9-19.5-1.6-39.4,4.9
		c-5.6,1.8-10.5,3.8-14.7,5.8c-1.6-3-3-6.2-4.3-9.6c-0.2-0.5-0.3-0.9-0.5-1.4c-2.5-7.3-3.8-14.4-3.8-21.3c0-7.9,1.7-14.7,5.1-20.4
		c0.7-1.2,1.5-2.4,2.3-3.4c2.3-3,5.1-5.4,8.4-7.4c4.5-2.6,9.3-4,14.5-4.1c2.8,0,6.6,0.9,11.2,2.6c4.6,1.7,7.6,2.6,8.9,2.6
		c1,0,4.3-1,9.9-3.1c5.3-1.9,9.7-2.7,13.4-2.4c9.9,0.8,17.3,4.7,22.3,11.7c0,0,0,0,0,0c0.8,1.1,1.6,2.2,2.3,3.4
		c2.4,3.9,3.9,8.4,4.7,13.5c-6.1-2.1-13.9-4-23.8-5c-20.8-2.1-33.9,1.4-39.5,3.5c-1,0.4-1.8,1-2.4,1.8c-0.6,0.8-1,1.8-1.1,2.8
		c-0.4,3.7,3.1,6.6,6.6,5.6c6.9-1.9,18.6-3.8,35.3-2.1C117.3,97.1,125.6,99.2,131.8,101.4z"/>
</g>
</svg>
